<svg width="24" height="24" viewBox="0 0 24 24" fill="none" xmlns="http://www.w3.org/2000/svg">
<g clip-path="url(#clip0_219_169)">
<path d="M18.3536 4.28613C17.5761 4.28613 16.9453 4.91694 16.9453 5.69444C16.9453 6.47195 17.5761 7.10276 18.3536 7.10276C19.1311 7.10276 19.7619 6.47195 19.7619 5.69444C19.7619 4.91694 19.1311 4.28613 18.3536 4.28613Z" fill="#220032"/>
<path d="M12.0966 6.09082C8.83693 6.09082 6.1875 8.74315 6.1875 11.9999C6.1875 15.2566 8.83986 17.9089 12.0966 17.9089C15.3533 17.9089 18.0056 15.2566 18.0056 11.9999C18.0056 8.74315 15.3533 6.09082 12.0966 6.09082ZM12.0966 15.7876C10.0076 15.7876 8.3117 14.0889 8.3117 12.0028C8.3117 9.91674 10.0105 8.21796 12.0966 8.21796C14.1827 8.21796 15.8814 9.91674 15.8814 12.0028C15.8814 14.0889 14.1827 15.7876 12.0966 15.7876Z" fill="#220032"/>
<path d="M16.7912 24H7.20875C3.2332 24 0 20.7667 0 16.7912V7.2088C0 3.23325 3.2332 0 7.20875 0H16.7912C20.7667 0 24 3.23325 24 7.2088V16.7912C24 20.7667 20.7667 24 16.7912 24V24ZM7.20875 2.25917C4.48014 2.25917 2.25915 4.48019 2.25915 7.2088V16.7912C2.25915 19.5198 4.48014 21.7408 7.20875 21.7408H16.7912C19.5198 21.7408 21.7408 19.5198 21.7408 16.7912V7.2088C21.7408 4.47726 19.5198 2.25917 16.7912 2.25917H7.20875Z" fill="#220032"/>
</g>
<defs>
<clipPath id="clip0_219_169">
<rect width="24" height="24" fill="white"/>
</clipPath>
</defs>
</svg>
