<svg width="24" height="24" viewBox="0 0 24 24" fill="none" xmlns="http://www.w3.org/2000/svg">
<g clip-path="url(#clip0_219_174)">
<path d="M0 24L1.7217 17.5807C0.748449 15.8235 0.233711 13.8533 0.233711 11.8536C0.233711 5.31889 5.55253 0 12.0872 0C18.6219 0 23.9408 5.31889 23.9408 11.8536C23.9408 18.3883 18.6219 23.7071 12.0872 23.7071C10.1259 23.7071 8.18836 23.2131 6.45188 22.2695L0 23.997V24ZM6.77428 19.8644L7.17959 20.107C8.67053 20.9944 10.3685 21.4648 12.0872 21.4648C17.3883 21.4648 21.7014 17.1517 21.7014 11.8506C21.7014 6.54951 17.3883 2.23643 12.0872 2.23643C6.78611 2.23643 2.47303 6.54951 2.47303 11.8506C2.47303 13.6019 2.95817 15.3236 3.87818 16.8352L4.1267 17.2434L3.16528 20.8288L6.77132 19.8615L6.77428 19.8644Z" fill="#220032"/>
<path fill-rule="evenodd" clip-rule="evenodd" d="M16.5004 13.5013C16.0123 13.2085 15.3763 12.883 14.8024 13.1197C14.3617 13.3001 14.0806 13.9894 13.7936 14.3414C13.6457 14.5219 13.4712 14.5515 13.2464 14.4598C11.5898 13.8001 10.3237 12.6967 9.40961 11.1732C9.25578 10.9365 9.28239 10.7502 9.46876 10.5313C9.74387 10.2059 10.0899 9.83609 10.1669 9.39827C10.2408 8.96046 10.0368 8.44868 9.8563 8.05819C9.62556 7.56121 9.36521 6.84831 8.86823 6.56728C8.40971 6.30695 7.80624 6.4519 7.39505 6.78618C6.69099 7.36007 6.34784 8.25937 6.35967 9.15275C6.35967 9.40716 6.39519 9.65858 6.45435 9.90411C6.59635 10.4928 6.86849 11.043 7.17614 11.5637C7.40688 11.9571 7.65834 12.3387 7.92754 12.7085C8.81205 13.9125 9.91547 14.9568 11.1905 15.7377C11.8265 16.1282 12.5127 16.4713 13.2257 16.705C14.0214 16.9683 14.7314 17.2434 15.5952 17.0778C16.4975 16.9062 17.3849 16.3501 17.7429 15.4804C17.8494 15.223 17.9026 14.9361 17.8435 14.6639C17.7222 14.1018 16.9619 13.7675 16.5064 13.4984L16.5004 13.5013Z" fill="#220032"/>
</g>
<defs>
<clipPath id="clip0_219_174">
<rect width="24" height="24" fill="white"/>
</clipPath>
</defs>
</svg>
