<svg width="800" height="800" viewBox="0 0 800 800" fill="none" xmlns="http://www.w3.org/2000/svg">
<path fill-rule="evenodd" clip-rule="evenodd" d="M400 600C510.457 600 600 510.457 600 400C600 289.543 510.457 200 400 200C289.543 200 200 289.543 200 400C200 510.457 289.543 600 400 600ZM400 533.333C473.637 533.333 533.333 473.637 533.333 400C533.333 326.362 473.637 266.667 400 266.667C326.362 266.667 266.667 326.362 266.667 400C266.667 473.637 326.362 533.333 400 533.333Z" fill="#220032"/>
<path d="M599.997 166.667C581.587 166.667 566.664 181.591 566.664 200C566.664 218.41 581.587 233.334 599.997 233.334C618.407 233.334 633.331 218.41 633.331 200C633.331 181.591 618.407 166.667 599.997 166.667Z" fill="#220032"/>
<path fill-rule="evenodd" clip-rule="evenodd" d="M55.1346 142.535C33.3359 185.317 33.3359 241.323 33.3359 353.333V446.666C33.3359 558.676 33.3359 614.683 55.1346 657.463C74.3093 695.096 104.905 725.693 142.538 744.866C185.32 766.666 241.326 766.666 353.336 766.666H446.669C558.679 766.666 614.686 766.666 657.466 744.866C695.099 725.693 725.696 695.096 744.869 657.463C766.669 614.683 766.669 558.676 766.669 446.666V353.333C766.669 241.323 766.669 185.317 744.869 142.535C725.696 104.902 695.099 74.3063 657.466 55.1317C614.686 33.333 558.679 33.333 446.669 33.333H353.336C241.326 33.333 185.32 33.333 142.538 55.1317C104.905 74.3063 74.3093 104.902 55.1346 142.535ZM446.669 99.9997H353.336C296.231 99.9997 257.411 100.052 227.405 102.503C198.177 104.891 183.231 109.219 172.804 114.532C147.716 127.315 127.318 147.713 114.535 172.801C109.222 183.228 104.894 198.174 102.506 227.402C100.055 257.408 100.003 296.228 100.003 353.333V446.666C100.003 503.773 100.055 542.59 102.506 572.596C104.894 601.826 109.222 616.773 114.535 627.2C127.318 652.286 147.716 672.683 172.804 685.466C183.231 690.78 198.177 695.11 227.405 697.496C257.411 699.946 296.231 700 353.336 700H446.669C503.776 700 542.593 699.946 572.599 697.496C601.829 695.11 616.776 690.78 627.203 685.466C652.289 672.683 672.686 652.286 685.469 627.2C690.783 616.773 695.113 601.826 697.499 572.596C699.949 542.59 700.003 503.773 700.003 446.666V353.333C700.003 296.228 699.949 257.408 697.499 227.402C695.113 198.174 690.783 183.228 685.469 172.801C672.686 147.713 652.289 127.315 627.203 114.532C616.776 109.219 601.829 104.891 572.599 102.503C542.593 100.052 503.776 99.9997 446.669 99.9997Z" fill="#220032"/>
</svg>
