<svg width="800" height="800" viewBox="0 0 800 800" fill="none" xmlns="http://www.w3.org/2000/svg">
<path d="M200.467 266.871C204.276 236.747 243.426 195.805 274.496 200.348L274.446 200.298C304.684 206.044 328.62 258.087 342.117 281.488C351.68 298.467 345.47 315.67 336.55 322.929C324.517 332.628 305.7 346.01 309.648 359.447C316.667 383.333 400 466.667 440.987 490.357C456.5 499.323 467.75 475.673 477.357 463.557C484.337 454.237 501.553 448.667 518.493 457.867C543.793 472.6 567.627 489.723 589.667 509C600.673 518.2 603.257 531.797 595.63 546.167C582.197 571.477 543.343 604.853 515.14 598.07C465.88 586.227 266.667 509 202.678 285.267C199.079 274.683 199.985 270.681 200.467 266.871Z" fill="#220032"/>
<path fill-rule="evenodd" clip-rule="evenodd" d="M400.003 766.666C359.216 766.666 336.649 762.29 300.003 750L229.817 785.093C185.49 807.256 133.336 775.023 133.336 725.463V650C61.5543 583.066 33.3359 505.89 33.3359 400C33.3359 197.495 197.498 33.333 400.003 33.333C602.506 33.333 766.669 197.495 766.669 400C766.669 602.503 602.506 766.666 400.003 766.666ZM200.003 621.01L178.801 601.24C123.032 549.24 100.003 491.103 100.003 400C100.003 234.314 234.317 99.9997 400.003 99.9997C565.689 99.9997 700.003 234.314 700.003 400C700.003 565.686 565.689 700 400.003 700C367.146 700 351.736 697.033 321.201 686.793L294.952 677.99L200.003 725.463V621.01Z" fill="#220032"/>
</svg>
