<svg width="40" height="40" viewBox="0 0 40 40" fill="none" xmlns="http://www.w3.org/2000/svg">
<path d="M11.1523 26.0146L10.7677 26.9377L11.1523 26.0146ZM8.3887 23.2354L7.46406 23.6163L8.3887 23.2354ZM28.0369 23.2354L28.9615 23.6163V23.6163L28.0369 23.2354ZM25.2733 26.0146L24.8888 25.0914L25.2733 26.0146ZM25.2733 11.3909L24.8888 12.314V12.314L25.2733 11.3909ZM28.0369 14.17L28.9615 13.7892V13.7892L28.0369 14.17ZM11.1523 11.3909L10.7677 10.4678L11.1523 11.3909ZM8.3887 14.17L7.46406 13.7892H7.46406L8.3887 14.17ZM23.5267 26.3588L23.5925 27.3567H23.5925L23.5267 26.3588ZM12.8989 26.3588L12.833 27.3567H12.833L12.8989 26.3588ZM8.10874 22.1262L7.11774 22.26L8.10874 22.1262ZM28.3168 22.1262L29.3078 22.26V22.26L28.3168 22.1262ZM28.3168 15.2793L29.3078 15.1455V15.1455L28.3168 15.2793ZM23.5267 11.0466L23.4608 12.0445L23.5267 11.0466ZM12.8989 11.0466L12.9647 12.0445L12.8989 11.0466ZM8.10874 15.2793L7.11774 15.1455V15.1455L8.10874 15.2793ZM33 16.6486C33 16.0963 32.5523 15.6486 32 15.6486C31.4477 15.6486 31 16.0963 31 16.6486H33ZM14.6383 29C14.086 29 13.6383 29.4477 13.6383 30C13.6383 30.5523 14.086 31 14.6383 31V29ZM31.2208 26.0746L30.3288 25.6227L31.2208 26.0746ZM28.0966 29.2164L27.6406 28.3265L28.0966 29.2164ZM15.6596 11V12H20.766V11V10H15.6596V11ZM20.766 26.4055V25.4055H15.6596V26.4055V27.4055H20.766V26.4055ZM11.1523 26.0146L11.5368 25.0914C10.5315 24.6727 9.73105 23.8687 9.31334 22.8546L8.3887 23.2354L7.46406 23.6163C8.08289 25.1187 9.27061 26.3141 10.7677 26.9377L11.1523 26.0146ZM28.0369 23.2354L27.1122 22.8546C26.6945 23.8687 25.8941 24.6727 24.8888 25.0914L25.2733 26.0146L25.6578 26.9377C27.1549 26.3141 28.3427 25.1187 28.9615 23.6163L28.0369 23.2354ZM25.2733 11.3909L24.8888 12.314C25.8941 12.7328 26.6945 13.5367 27.1122 14.5509L28.0369 14.17L28.9615 13.7892C28.3427 12.2868 27.1549 11.0914 25.6578 10.4678L25.2733 11.3909ZM11.1523 11.3909L10.7677 10.4678C9.27061 11.0914 8.08289 12.2868 7.46406 13.7892L8.3887 14.17L9.31334 14.5509C9.73105 13.5367 10.5315 12.7328 11.5368 12.314L11.1523 11.3909ZM21.617 18.7027H20.617C20.617 20.0465 19.5353 21.1262 18.2128 21.1262V22.1262V23.1262C20.6505 23.1262 22.617 21.1404 22.617 18.7027H21.617ZM18.2128 22.1262V21.1262C16.8902 21.1262 15.8085 20.0465 15.8085 18.7027H14.8085H13.8085C13.8085 21.1404 15.7751 23.1262 18.2128 23.1262V22.1262ZM14.8085 18.7027H15.8085C15.8085 17.359 16.8902 16.2793 18.2128 16.2793V15.2793V14.2793C15.7751 14.2793 13.8085 16.265 13.8085 18.7027H14.8085ZM18.2128 15.2793V16.2793C19.5353 16.2793 20.617 17.359 20.617 18.7027H21.617H22.617C22.617 16.265 20.6505 14.2793 18.2128 14.2793V15.2793ZM20.766 26.4055V27.4055C21.924 27.4055 22.8454 27.406 23.5925 27.3567L23.5267 26.3588L23.4608 25.361C22.7948 25.4049 21.9503 25.4055 20.766 25.4055V26.4055ZM23.5267 26.3588L23.5925 27.3567C24.3715 27.3053 25.0366 27.1965 25.6578 26.9377L25.2733 26.0146L24.8888 25.0914C24.5571 25.2296 24.1396 25.3162 23.4608 25.361L23.5267 26.3588ZM15.6596 26.4055V25.4055C14.4753 25.4055 13.6308 25.4049 12.9647 25.361L12.8989 26.3588L12.833 27.3567C13.5802 27.406 14.5015 27.4055 15.6596 27.4055V26.4055ZM12.8989 26.3588L12.9647 25.361C12.2859 25.3162 11.8685 25.2296 11.5368 25.0914L11.1523 26.0146L10.7677 26.9377C11.389 27.1965 12.0541 27.3053 12.833 27.3567L12.8989 26.3588ZM8 18.7027H7C7 20.2369 6.99779 21.3716 7.11774 22.26L8.10874 22.1262L9.09975 21.9924C9.00221 21.2699 9 20.2983 9 18.7027H8ZM8.10874 22.1262L7.11774 22.26C7.18354 22.7474 7.28903 23.1913 7.46406 23.6163L8.3887 23.2354L9.31334 22.8546C9.21941 22.6265 9.14899 22.3571 9.09975 21.9924L8.10874 22.1262ZM28.4256 18.7027H27.4256C27.4256 20.2983 27.4233 21.2699 27.3258 21.9924L28.3168 22.1262L29.3078 22.26C29.4278 21.3716 29.4256 20.2369 29.4256 18.7027H28.4256ZM28.3168 22.1262L27.3258 21.9924C27.2766 22.3571 27.2062 22.6265 27.1122 22.8546L28.0369 23.2354L28.9615 23.6163C29.1365 23.1913 29.242 22.7474 29.3078 22.26L28.3168 22.1262ZM28.4256 18.7027H29.4256C29.4256 17.1685 29.4278 16.0339 29.3078 15.1455L28.3168 15.2793L27.3258 15.4131C27.4233 16.1355 27.4256 17.1072 27.4256 18.7027H28.4256ZM28.3168 15.2793L29.3078 15.1455C29.242 14.6581 29.1365 14.2141 28.9615 13.7892L28.0369 14.17L27.1122 14.5509C27.2062 14.7789 27.2766 15.0484 27.3258 15.4131L28.3168 15.2793ZM20.766 11V12C21.9503 12 22.7948 12.0005 23.4608 12.0445L23.5267 11.0466L23.5925 10.0488C22.8454 9.9995 21.924 10 20.766 10V11ZM23.5267 11.0466L23.4608 12.0445C24.1396 12.0892 24.5571 12.1758 24.8888 12.314L25.2733 11.3909L25.6578 10.4678C25.0366 10.209 24.3715 10.1002 23.5925 10.0488L23.5267 11.0466ZM15.6596 11V10C14.5015 10 13.5802 9.9995 12.833 10.0488L12.8989 11.0466L12.9647 12.0445C13.6308 12.0005 14.4753 12 15.6596 12V11ZM12.8989 11.0466L12.833 10.0488C12.0541 10.1002 11.389 10.209 10.7677 10.4678L11.1523 11.3909L11.5368 12.314C11.8685 12.1758 12.2859 12.0892 12.9647 12.0445L12.8989 11.0466ZM8 18.7027H9C9 17.1072 9.00221 16.1355 9.09975 15.4131L8.10874 15.2793L7.11774 15.1455C6.99779 16.0339 7 17.1685 7 18.7027H8ZM8.10874 15.2793L9.09975 15.4131C9.14899 15.0484 9.21941 14.7789 9.31334 14.5509L8.3887 14.17L7.46406 13.7892C7.28903 14.2141 7.18354 14.6581 7.11774 15.1455L8.10874 15.2793ZM32 16.6486H31V18.4973H32H33V16.6486H32ZM20.5617 30V29H14.6383V30V31H20.5617V30ZM32 18.4973H31C31 20.5268 30.9992 21.9892 30.9059 23.1381C30.8135 24.2756 30.6353 25.0177 30.3288 25.6227L31.2208 26.0746L32.1128 26.5266C32.5855 25.5937 32.7969 24.5603 32.8993 23.3001C33.0008 22.0514 33 20.494 33 18.4973H32ZM20.5617 30V31C22.547 31 24.0964 31.0008 25.339 30.8987C26.5934 30.7956 27.623 30.5827 28.5526 30.1064L28.0966 29.2164L27.6406 28.3265C27.0409 28.6337 26.305 28.8126 25.1752 28.9054C24.0336 28.9992 22.5802 29 20.5617 29V30ZM31.2208 26.0746L30.3288 25.6227C29.7385 26.7877 28.7971 27.7338 27.6406 28.3265L28.0966 29.2164L28.5526 30.1064C30.0864 29.3205 31.3323 28.067 32.1128 26.5266L31.2208 26.0746Z" fill="white"/>
</svg>
