<svg width="40" height="40" viewBox="0 0 40 40" fill="none" xmlns="http://www.w3.org/2000/svg">
<path d="M5.50056 25.3853L4.61714 25.8538H4.61714L5.50056 25.3853ZM7.5076 27.3133L7.94723 26.4151H7.94723L7.5076 27.3133ZM23.1591 10.4809L23.5987 9.58267L23.5987 9.58267L23.1591 10.4809ZM25.1661 12.4089L24.2827 12.8774V12.8774L25.1661 12.4089ZM7.5076 10.4809L7.94723 11.379L7.5076 10.4809ZM5.50056 12.4089L6.38399 12.8774L5.50056 12.4089ZM25.6667 16.6176V15.6176H24.6667V16.6176H25.6667ZM35.8749 27.1919L34.9914 26.7233V26.7233L35.8749 27.1919ZM35.3731 27.6739L35.8127 28.5721H35.8127L35.3731 27.6739ZM33.179 17.1586L32.7393 18.0568L33.179 17.1586ZM35.4369 19.3276L36.3203 18.859L35.4369 19.3276ZM12.3481 10V11H18.3185V10V9H12.3481V10ZM25.6667 17.0588H24.6667V27.7941H25.6667H26.6667V17.0588H25.6667ZM5 20.7353H6V17.0588H5H4V20.7353H5ZM5 20.7353H4C4 21.9535 3.99916 22.9298 4.06617 23.7177C4.13428 24.5185 4.27778 25.214 4.61714 25.8538L5.50056 25.3853L6.38399 24.9167C6.22278 24.6128 6.11601 24.2187 6.05897 23.5482C6.00084 22.8647 6 21.9879 6 20.7353H5ZM7.5076 27.3133L7.94723 26.4151C7.26778 26.0825 6.7229 25.5556 6.38399 24.9167L5.50056 25.3853L4.61714 25.8538C5.15884 26.8751 6.01912 27.6981 7.06797 28.2114L7.5076 27.3133ZM18.3185 10V11C19.6204 11 20.5391 11.0007 21.2567 11.057C21.9637 11.1125 22.3891 11.2173 22.7194 11.379L23.1591 10.4809L23.5987 9.58267C22.9466 9.26351 22.2378 9.12789 21.4132 9.06317C20.5991 8.99928 19.5887 9 18.3185 9V10ZM25.6667 17.0588H26.6667C26.6667 15.8406 26.6675 14.8643 26.6005 14.0764C26.5324 13.2757 26.3889 12.5801 26.0495 11.9403L25.1661 12.4089L24.2827 12.8774C24.4439 13.1814 24.5507 13.5754 24.6077 14.2459C24.6658 14.9294 24.6667 15.8062 24.6667 17.0588H25.6667ZM23.1591 10.4809L22.7194 11.379C23.3989 11.7116 23.9438 12.2385 24.2827 12.8774L25.1661 12.4089L26.0495 11.9403C25.5078 10.919 24.6476 10.0961 23.5987 9.58267L23.1591 10.4809ZM12.3481 10V9C11.078 9 10.0675 8.99928 9.2535 9.06317C8.42891 9.12789 7.72004 9.26351 7.06797 9.58267L7.5076 10.4809L7.94723 11.379C8.27757 11.2173 8.70292 11.1125 9.40999 11.057C10.1276 11.0007 11.0462 11 12.3481 11V10ZM5 17.0588H6C6 15.8062 6.00084 14.9294 6.05897 14.2459C6.11601 13.5754 6.22278 13.1814 6.38399 12.8774L5.50056 12.4089L4.61714 11.9403C4.27778 12.5801 4.13428 13.2757 4.06617 14.0764C3.99916 14.8643 4 15.8406 4 17.0588H5ZM7.5076 10.4809L7.06797 9.58267C6.01911 10.0961 5.15884 10.919 4.61714 11.9403L5.50056 12.4089L6.38399 12.8774C6.7229 12.2385 7.26778 11.7116 7.94723 11.379L7.5076 10.4809ZM25.6667 16.6176V17.6176H27.7333V16.6176V15.6176H25.6667V16.6176ZM36 24.5588H35V26.0294H36H37V24.5588H36ZM25.6667 17.0588H26.6667V16.6176H25.6667H24.6667V17.0588H25.6667ZM36 26.0294H35C35 26.3554 34.9992 26.5374 34.988 26.6691C34.9779 26.7879 34.9649 26.7733 34.9914 26.7233L35.8749 27.1919L36.7583 27.6605C36.9099 27.3746 36.9596 27.0876 36.9808 26.8386C37.0008 26.6025 37 26.3211 37 26.0294H36ZM34.163 27.7941V28.7941C34.4686 28.7941 34.7556 28.7948 34.9953 28.776C35.2455 28.7564 35.5291 28.7109 35.8127 28.5721L35.3731 27.6739L34.9335 26.7757C34.9715 26.7571 34.9715 26.7717 34.8388 26.7822C34.6956 26.7934 34.5003 26.7941 34.163 26.7941V27.7941ZM35.8749 27.1919L34.9914 26.7233C34.9828 26.7397 34.9648 26.7604 34.9335 26.7757L35.3731 27.6739L35.8127 28.5721C36.2135 28.3759 36.5468 28.0592 36.7583 27.6605L35.8749 27.1919ZM27.7333 16.6176V17.6176C29.196 17.6176 30.2352 17.6184 31.0485 17.6822C31.8513 17.7452 32.3476 17.865 32.7393 18.0568L33.179 17.1586L33.6186 16.2604C32.9051 15.9112 32.1253 15.7606 31.205 15.6883C30.2953 15.6169 29.1643 15.6176 27.7333 15.6176V16.6176ZM36 24.5588H37C37 23.1862 37.0008 22.0941 36.926 21.2142C36.8501 20.3215 36.6909 19.5578 36.3203 18.859L35.4369 19.3276L34.5534 19.7962C34.7459 20.1591 34.8684 20.6212 34.9332 21.3837C34.9992 22.1592 35 23.1518 35 24.5588H36ZM33.179 17.1586L32.7393 18.0568C33.5268 18.4422 34.1595 19.0535 34.5534 19.7962L35.4369 19.3276L36.3203 18.859C35.7236 17.734 34.7755 16.8267 33.6186 16.2604L33.179 17.1586ZM14.1852 27.7941H13.1852C13.1852 28.4226 12.6431 29 11.8889 29V30V31C13.6711 31 15.1852 29.6022 15.1852 27.7941H14.1852ZM11.8889 30V29C11.1347 29 10.5926 28.4226 10.5926 27.7941H9.59259H8.59259C8.59259 29.6022 10.1066 31 11.8889 31V30ZM11.8889 25.5882V26.5882C12.6431 26.5882 13.1852 27.1656 13.1852 27.7941H14.1852H15.1852C15.1852 25.9861 13.6711 24.5882 11.8889 24.5882V25.5882ZM25.6667 27.7941V26.7941H14.1852V27.7941V28.7941H25.6667V27.7941ZM9.59259 27.7941H10.5926C10.5926 27.7865 10.5927 27.7789 10.5928 27.7714L9.59301 27.7518L8.5932 27.7322C8.5928 27.7528 8.59259 27.7735 8.59259 27.7941H9.59259ZM9.59301 27.7518L10.5928 27.7714C10.6049 27.1526 11.144 26.5882 11.8889 26.5882V25.5882V24.5882C10.1268 24.5882 8.62803 25.9536 8.5932 27.7322L9.59301 27.7518ZM9.59301 27.7518L9.65153 26.7535C8.79807 26.7035 8.31551 26.5953 7.94723 26.4151L7.5076 27.3133L7.06797 28.2114C7.79063 28.5652 8.58624 28.6945 9.53448 28.7501L9.59301 27.7518ZM33.1296 27.7941H32.1296C32.1296 28.4226 31.5875 29 30.8333 29V30V31C32.6156 31 34.1296 29.6022 34.1296 27.7941H33.1296ZM30.8333 30V29C30.0792 29 29.537 28.4226 29.537 27.7941H28.537H27.537C27.537 29.6022 29.0511 31 30.8333 31V30ZM28.537 27.7941H29.537C29.537 27.1656 30.0792 26.5882 30.8333 26.5882V25.5882V24.5882C29.0511 24.5882 27.537 25.9861 27.537 27.7941H28.537ZM30.8333 25.5882V26.5882C31.5875 26.5882 32.1296 27.1656 32.1296 27.7941H33.1296H34.1296C34.1296 25.9861 32.6156 24.5882 30.8333 24.5882V25.5882ZM34.163 27.7941V26.7941H33.1296V27.7941V28.7941H34.163V27.7941ZM28.537 27.7941V26.7941H25.6667V27.7941V28.7941H28.537V27.7941Z" fill="white"/>
</svg>
