<svg width="40" height="40" viewBox="0 0 40 40" fill="none" xmlns="http://www.w3.org/2000/svg">
<path d="M8 20C8 26.6274 13.3726 32 20 32C23.6 32 23.5 31.3333 23 31C22.3333 30.6667 21.2 29.6 22 28C22.8 26.4 25 26 26 26C30.8 26 32 22 32 20C32 13.3726 26.6274 8 20 8C13.3726 8 8 13.3726 8 20Z" stroke="#220032" stroke-width="2"/>
<path d="M12 17.5C12 18.3284 12.6716 19 13.5 19C14.3284 19 15 18.3284 15 17.5C15 16.6716 14.3284 16 13.5 16C12.6716 16 12 16.6716 12 17.5Z" fill="#220032"/>
<path d="M28 17.5C28 18.3284 27.3284 19 26.5 19C25.6716 19 25 18.3284 25 17.5C25 16.6716 25.6716 16 26.5 16C27.3284 16 28 16.6716 28 17.5Z" fill="#220032"/>
<path d="M16 13.5C16 14.3284 16.6716 15 17.5 15C18.3284 15 19 14.3284 19 13.5C19 12.6716 18.3284 12 17.5 12C16.6716 12 16 12.6716 16 13.5Z" fill="#220032"/>
<path d="M24 13.5C24 14.3284 23.3284 15 22.5 15C21.6716 15 21 14.3284 21 13.5C21 12.6716 21.6716 12 22.5 12C23.3284 12 24 12.6716 24 13.5Z" fill="#220032"/>
</svg>
