<svg width="40" height="40" viewBox="0 0 40 40" fill="none" xmlns="http://www.w3.org/2000/svg">
<path d="M9.22244 26.6739C8.67016 26.6739 8.22244 27.1216 8.22244 27.6739C8.22244 28.2262 8.67016 28.6739 9.22244 28.6739V26.6739ZM24.4812 10.4809L24.9299 9.58716L24.9299 9.58716L24.4812 10.4809ZM26.4379 12.4089L25.5496 12.8682L25.5496 12.8682L26.4379 12.4089ZM9.22246 9C8.67017 8.99999 8.22245 9.4477 8.22244 9.99998C8.22243 10.5523 8.67014 11 9.22242 11L9.22246 9ZM26.9259 16.6176V15.6176H25.9259V16.6176H26.9259ZM36.878 27.1919L35.9897 26.7326L35.9897 26.7326L36.878 27.1919ZM36.3888 27.6739L36.8375 28.5676L36.8375 28.5676L36.3888 27.6739ZM34.2497 17.1586L33.801 18.0523L33.801 18.0523L34.2497 17.1586ZM36.451 19.3276L37.3393 18.8683L37.3393 18.8683L36.451 19.3276ZM5.51852 15.25C4.96624 15.25 4.51852 15.6977 4.51852 16.25C4.51852 16.8023 4.96624 17.25 5.51852 17.25V15.25ZM11.8148 17.25C12.3671 17.25 12.8148 16.8023 12.8148 16.25C12.8148 15.6977 12.3671 15.25 11.8148 15.25V17.25ZM3 20.25C2.44772 20.25 2 20.6977 2 21.25C2 21.8023 2.44772 22.25 3 22.25V20.25ZM13.0741 22.25C13.6264 22.25 14.0741 21.8023 14.0741 21.25C14.0741 20.6977 13.6264 20.25 13.0741 20.25V22.25ZM13.9415 10V11H19.7621V10V9H13.9415V10ZM26.9259 17.0588H25.9259V27.7941H26.9259H27.9259V17.0588H26.9259ZM19.7621 10V11C21.0322 11 21.9254 11.0008 22.6226 11.0569C23.3085 11.1121 23.7168 11.216 24.0325 11.3745L24.4812 10.4809L24.9299 9.58716C24.2879 9.26482 23.5904 9.12832 22.7831 9.06333C21.9871 8.99924 20.9996 9 19.7621 9V10ZM26.9259 17.0588H27.9259C27.9259 15.8402 27.9267 14.8651 27.8615 14.0786C27.7953 13.2799 27.6559 12.5872 27.3262 11.9495L26.4379 12.4089L25.5496 12.8682C25.7079 13.1743 25.8126 13.5712 25.8683 14.2438C25.9251 14.9286 25.9259 15.8067 25.9259 17.0588H26.9259ZM24.4812 10.4809L24.0325 11.3745C24.6881 11.7037 25.2183 12.2274 25.5496 12.8682L26.4379 12.4089L27.3262 11.9495C26.799 10.9301 25.9593 10.104 24.9299 9.58716L24.4812 10.4809ZM13.9415 10V9C11.434 9 9.92594 9.00001 9.22246 9L9.22244 10L9.22242 11C9.92593 11 11.434 11 13.9415 11V10ZM26.9259 16.6176V17.6176H28.9407V16.6176V15.6176H26.9259V16.6176ZM37 24.5588H36V26.0294H37H38V24.5588H37ZM26.9259 17.0588H27.9259V16.6176H26.9259H25.9259V17.0588H26.9259ZM37 26.0294H36C36 26.355 35.9992 26.5382 35.9882 26.6712C35.9781 26.7921 35.965 26.7804 35.9897 26.7326L36.878 27.1919L37.7663 27.6512C37.913 27.3675 37.9609 27.0834 37.9813 26.8365C38.0008 26.6016 38 26.3215 38 26.0294H37ZM35.2091 27.7941V28.7941C35.5062 28.7941 35.7884 28.7949 36.0245 28.7759C36.2718 28.756 36.5546 28.7096 36.8375 28.5676L36.3888 27.6739L35.9401 26.7802C35.9836 26.7584 35.99 26.7722 35.864 26.7823C35.7268 26.7934 35.5388 26.7941 35.2091 26.7941V27.7941ZM36.878 27.1919L35.9897 26.7326C35.9803 26.7508 35.9638 26.7683 35.9401 26.7802L36.3888 27.6739L36.8375 28.5676C37.2351 28.368 37.5611 28.0481 37.7663 27.6512L36.878 27.1919ZM28.9407 16.6176V17.6176C30.3675 17.6176 31.3783 17.6184 32.1688 17.682C32.9481 17.7448 33.4255 17.8637 33.801 18.0523L34.2497 17.1586L34.6984 16.2649C33.9965 15.9125 33.2299 15.761 32.3293 15.6885C31.4399 15.6169 30.335 15.6176 28.9407 15.6176V16.6176ZM37 24.5588H38C38 23.1857 38.0008 22.0949 37.928 21.2163C37.8541 20.3257 37.6995 19.5649 37.3393 18.8683L36.451 19.3276L35.5627 19.7869C35.7515 20.152 35.8714 20.617 35.9348 21.3816C35.9992 22.1583 36 23.1522 36 24.5588H37ZM34.2497 17.1586L33.801 18.0523C34.5619 18.4343 35.1777 19.0424 35.5627 19.7869L36.451 19.3276L37.3393 18.8683C36.7584 17.7451 35.8331 16.8346 34.6984 16.2649L34.2497 17.1586ZM15.7325 27.7941H14.7325C14.7325 28.4462 14.1919 29 13.4938 29V30V31C15.2685 31 16.7325 29.5785 16.7325 27.7941H15.7325ZM13.4938 30V29C12.7957 29 12.2551 28.4462 12.2551 27.7941H11.2551H10.2551C10.2551 29.5785 11.7191 31 13.4938 31V30ZM13.4938 25.5882V26.5882C14.1919 26.5882 14.7325 27.142 14.7325 27.7941H15.7325H16.7325C16.7325 26.0097 15.2685 24.5882 13.4938 24.5882V25.5882ZM26.9259 27.7941V26.7941H15.7325V27.7941V28.7941H26.9259V27.7941ZM11.2551 27.7941H12.2551C12.2551 27.7863 12.2552 27.7786 12.2553 27.7709L11.2555 27.7518L10.2557 27.7327C10.2553 27.7532 10.2551 27.7736 10.2551 27.7941H11.2551ZM11.2555 27.7518L12.2553 27.7709C12.2676 27.1293 12.8041 26.5882 13.4938 26.5882V25.5882V24.5882C11.7394 24.5882 10.2892 25.9768 10.2557 27.7327L11.2555 27.7518ZM11.2555 27.7518L11.3156 26.7536C10.4354 26.7007 9.95828 26.6739 9.22244 26.6739V27.6739V28.6739C9.89359 28.6739 10.3192 28.6973 11.1955 28.75L11.2555 27.7518ZM34.2016 27.7941H33.2016C33.2016 28.4462 32.661 29 31.963 29V30V31C33.7377 31 35.2016 29.5785 35.2016 27.7941H34.2016ZM31.963 30V29C31.2649 29 30.7243 28.4462 30.7243 27.7941H29.7243H28.7243C28.7243 29.5785 30.1883 31 31.963 31V30ZM29.7243 27.7941H30.7243C30.7243 27.142 31.2649 26.5882 31.963 26.5882V25.5882V24.5882C30.1883 24.5882 28.7243 26.0097 28.7243 27.7941H29.7243ZM31.963 25.5882V26.5882C32.661 26.5882 33.2016 27.142 33.2016 27.7941H34.2016H35.2016C35.2016 26.0097 33.7377 24.5882 31.963 24.5882V25.5882ZM35.2091 27.7941V26.7941H34.2016V27.7941V28.7941H35.2091V27.7941ZM29.7243 27.7941V26.7941H26.9259V27.7941V28.7941H29.7243V27.7941ZM5.51852 16.25V17.25H11.8148V16.25V15.25H5.51852V16.25ZM3 21.25V22.25H13.0741V21.25V20.25H3V21.25Z" fill="#220032"/>
</svg>
