<svg width="40" height="40" viewBox="0 0 40 40" fill="none" xmlns="http://www.w3.org/2000/svg">
<path d="M33 19C33 18.4477 32.5523 18 32 18C31.4477 18 31 18.4477 31 19H33ZM9 19C9 18.4477 8.55228 18 8 18C7.44772 18 7 18.4477 7 19H9ZM11.2761 30.346L11.73 29.455L11.73 29.455L11.2761 30.346ZM8.65396 27.7239L7.76295 28.1779L7.76295 28.1779L8.65396 27.7239ZM31.346 27.7239L30.455 27.27L30.455 27.27L31.346 27.7239ZM28.7239 30.346L29.1779 31.237L29.1779 31.237L28.7239 30.346ZM32 19H31V21.4H32H33V19H32ZM22.4 31V30H17.6V31V32H22.4V31ZM8 21.4H9V19H8H7V21.4H8ZM17.6 31V30C15.9033 30 14.691 29.9992 13.7406 29.9216C12.802 29.8449 12.2073 29.6982 11.73 29.455L11.2761 30.346L10.8221 31.237C11.6283 31.6478 12.5154 31.8281 13.5778 31.9149C14.6285 32.0008 15.9363 32 17.6 32V31ZM8 21.4H7C7 23.0637 6.99922 24.3715 7.08507 25.4222C7.17186 26.4846 7.35217 27.3717 7.76295 28.1779L8.65396 27.7239L9.54497 27.27C9.30179 26.7927 9.15512 26.198 9.07842 25.2594C9.00078 24.309 9 23.0967 9 21.4H8ZM11.2761 30.346L11.73 29.455C10.7892 28.9757 10.0243 28.2108 9.54497 27.27L8.65396 27.7239L7.76295 28.1779C8.43407 29.4951 9.50493 30.5659 10.8221 31.237L11.2761 30.346ZM32 21.4H31C31 23.0967 30.9992 24.309 30.9216 25.2594C30.8449 26.198 30.6982 26.7927 30.455 27.27L31.346 27.7239L32.237 28.1779C32.6478 27.3717 32.8281 26.4846 32.9149 25.4222C33.0008 24.3715 33 23.0637 33 21.4H32ZM22.4 31V32C24.0637 32 25.3715 32.0008 26.4222 31.9149C27.4846 31.8281 28.3717 31.6478 29.1779 31.237L28.7239 30.346L28.27 29.455C27.7927 29.6982 27.198 29.8449 26.2594 29.9216C25.309 29.9992 24.0967 30 22.4 30V31ZM31.346 27.7239L30.455 27.27C29.9757 28.2108 29.2108 28.9757 28.27 29.455L28.7239 30.346L29.1779 31.237C30.4951 30.5659 31.5659 29.4951 32.237 28.1779L31.346 27.7239Z" fill="#220032"/>
<path d="M7 21C7 21.5523 7.44772 22 8 22C8.55228 22 9 21.5523 9 21L7 21ZM31 21C31 21.5523 31.4477 22 32 22C32.5523 22 33 21.5523 33 21L31 21ZM28.7239 9.65396L28.27 10.545L28.27 10.545L28.7239 9.65396ZM31.346 12.2761L32.237 11.8221L32.237 11.8221L31.346 12.2761ZM8.65396 12.2761L9.54497 12.73L9.54497 12.73L8.65396 12.2761ZM11.2761 9.65395L10.8221 8.76295L10.8221 8.76295L11.2761 9.65395ZM8 21L9 21L9 18.6L8 18.6L7 18.6L7 21L8 21ZM17.6 8.99999L17.6 9.99999L22.4 9.99999L22.4 8.99999L22.4 7.99999L17.6 7.99999L17.6 8.99999ZM32 18.6L31 18.6L31 21L32 21L33 21L33 18.6L32 18.6ZM22.4 8.99999L22.4 9.99999C24.0967 9.99999 25.309 10.0008 26.2594 10.0784C27.198 10.1551 27.7927 10.3018 28.27 10.545L28.7239 9.65396L29.1779 8.76295C28.3717 8.35217 27.4846 8.17186 26.4222 8.08506C25.3715 7.99922 24.0637 7.99999 22.4 7.99999L22.4 8.99999ZM32 18.6L33 18.6C33 16.9363 33.0008 15.6285 32.9149 14.5778C32.8281 13.5154 32.6478 12.6283 32.237 11.8221L31.346 12.2761L30.455 12.73C30.6982 13.2073 30.8449 13.802 30.9216 14.7406C30.9992 15.691 31 16.9033 31 18.6L32 18.6ZM28.7239 9.65396L28.27 10.545C29.2108 11.0243 29.9757 11.7892 30.455 12.73L31.346 12.2761L32.237 11.8221C31.5659 10.5049 30.4951 9.43406 29.1779 8.76295L28.7239 9.65396ZM8 18.6L9 18.6C9 16.9033 9.00078 15.691 9.07842 14.7406C9.15512 13.802 9.30179 13.2073 9.54497 12.73L8.65396 12.2761L7.76296 11.8221C7.35217 12.6283 7.17186 13.5154 7.08507 14.5778C6.99922 15.6285 7 16.9363 7 18.6L8 18.6ZM17.6 8.99999L17.6 7.99999C15.9363 7.99999 14.6285 7.99922 13.5778 8.08506C12.5154 8.17186 11.6283 8.35217 10.8221 8.76295L11.2761 9.65395L11.73 10.545C12.2073 10.3018 12.802 10.1551 13.7406 10.0784C14.691 10.0008 15.9033 9.99999 17.6 9.99999L17.6 8.99999ZM8.65396 12.2761L9.54497 12.73C10.0243 11.7892 10.7892 11.0243 11.73 10.545L11.2761 9.65395L10.8221 8.76295C9.50493 9.43406 8.43407 10.5049 7.76296 11.8221L8.65396 12.2761Z" fill="#220032"/>
<path d="M23.5358 17.8787C23.9264 17.4882 23.9264 16.8551 23.5358 16.4645C23.1453 16.074 22.5122 16.074 22.1216 16.4645L23.5358 17.8787ZM14.3434 25.6569L13.3434 25.6569C13.3434 25.9221 13.4488 26.1765 13.6363 26.364C13.8239 26.5516 14.0782 26.6569 14.3434 26.6569L14.3434 25.6569ZM15.3434 20.0001C15.3434 19.4478 14.8957 19.0001 14.3434 19.0001C13.7912 19.0001 13.3434 19.4478 13.3434 20.0001L15.3434 20.0001ZM20.0003 26.6569C20.5526 26.6569 21.0003 26.2092 21.0003 25.6569C21.0003 25.1046 20.5526 24.6569 20.0003 24.6569L20.0003 26.6569ZM22.8287 17.1716L22.1216 16.4645L13.6363 24.9498L14.3434 25.6569L15.0506 26.364L23.5358 17.8787L22.8287 17.1716ZM14.3434 25.6569L15.3434 25.6569L15.3434 20.0001L14.3434 20.0001L13.3434 20.0001L13.3434 25.6569L14.3434 25.6569ZM14.3434 25.6569L14.3434 26.6569L20.0003 26.6569L20.0003 25.6569L20.0003 24.6569L14.3434 24.6569L14.3434 25.6569Z" fill="#220032"/>
<path d="M16.4642 22.1212C16.0736 22.5118 16.0736 23.1449 16.4642 23.5355C16.8547 23.926 17.4879 23.926 17.8784 23.5355L16.4642 22.1212ZM25.6566 14.3431H26.6566C26.6566 13.7908 26.2088 13.3431 25.6566 13.3431V14.3431ZM24.6566 19.9999C24.6566 20.5522 25.1043 20.9999 25.6566 20.9999C26.2088 20.9999 26.6566 20.5522 26.6566 19.9999H24.6566ZM19.9997 13.3431C19.4474 13.3431 18.9997 13.7908 18.9997 14.3431C18.9997 14.8954 19.4474 15.3431 19.9997 15.3431V13.3431ZM17.1713 22.8284L17.8784 23.5355L26.3637 15.0502L25.6566 14.3431L24.9494 13.636L16.4642 22.1212L17.1713 22.8284ZM25.6566 14.3431H24.6566V19.9999H25.6566H26.6566V14.3431H25.6566ZM25.6566 14.3431V13.3431H19.9997V14.3431V15.3431H25.6566V14.3431Z" fill="#220032"/>
</svg>
