<svg width="40" height="40" viewBox="0 0 40 40" fill="none" xmlns="http://www.w3.org/2000/svg">
<path d="M15.432 20L18.4773 23.3025L24.568 16.6975M15.0428 9.71933C16.029 9.84872 17.0226 9.53752 17.7416 8.87404C19.0045 7.70865 20.9955 7.70865 22.2584 8.87404C22.9774 9.53752 23.971 9.84872 24.9572 9.71933C26.6895 9.49205 28.3003 10.6201 28.6114 12.2785C28.7885 13.2226 29.4025 14.0374 30.2793 14.4915C31.8194 15.2891 32.4346 17.1144 31.6751 18.6323C31.2427 19.4965 31.2427 20.5035 31.6751 21.3677C32.4346 22.8856 31.8194 24.7109 30.2793 25.5085C29.4025 25.9626 28.7885 26.7774 28.6114 27.7215C28.3003 29.3799 26.6895 30.5079 24.9572 30.2807C23.971 30.1513 22.9774 30.4625 22.2584 31.126C20.9955 32.2913 19.0045 32.2913 17.7416 31.126C17.0226 30.4625 16.029 30.1513 15.0428 30.2807C13.3105 30.5079 11.6997 29.3799 11.3886 27.7215C11.2115 26.7774 10.5975 25.9626 9.72068 25.5085C8.18062 24.7109 7.56537 22.8856 8.32492 21.3677C8.75735 20.5035 8.75735 19.4965 8.32492 18.6323C7.56537 17.1144 8.18062 15.2891 9.72068 14.4915C10.5975 14.0374 11.2115 13.2226 11.3886 12.2785C11.6997 10.6201 13.3105 9.49205 15.0428 9.71933Z" stroke="#220032" stroke-width="2" stroke-linecap="round" stroke-linejoin="round"/>
</svg>
